GIL01_free4_ik
nRows=3
nColumns=375

# SIMM Motion File Header:
name GIL01_free4_ik
datacolumns 375
datarows 3
otherdata 1
range 0.41667000 0.43333000
endheader
time	pelvis_tx	pelvis_ty	pelvis_tz	pelvis_tilt	pelvis_list	pelvis_rotation	hip_flexion_r	hip_adduction_r	hip_rotation_r	knee_angle_r	ankle_angle_r	hip_flexion_l	hip_adduction_l	hip_rotation_l	knee_angle_l	ankle_angle_l	lumbar_extension	lumbar_bending	lumbar_rotation	subtalar_angle_r	mtp_angle_r	subtalar_angle_l	mtp_angle_l	asis_r_px	asis_r_py	asis_r_pz	asis_l_px	asis_l_py	asis_l_pz	midasis_px	midasis_py	midasis_pz	psis_r_px	psis_r_py	psis_r_pz	psis_l_px	psis_l_py	psis_l_pz	hip_r_px	hip_r_py	hip_r_pz	hip_l_px	hip_l_py	hip_l_pz	midhip_px	midhip_py	midhip_pz	epicondLat_r_px	epicondLat_r_py	epicondLat_r_pz	epicondMed_r_px	epicondMed_r_py	epicondMed_r_pz	thighwand_r_px	thighwand_r_py	thighwand_r_pz	upperleg1_r_px	upperleg1_r_py	upperleg1_r_pz	upperleg2_r_px	upperleg2_r_py	upperleg2_r_pz	malleolusLat_r_px	malleolusLat_r_py	malleolusLat_r_pz	malleolusMedv_r_px	malleolusMedv_r_py	malleolusMedv_r_pz	shankwand_r_px	shankwand_r_py	shankwand_r_pz	lowerleg1_r_px	lowerleg1_r_py	lowerleg1_r_pz	knee_r_px	knee_r_py	knee_r_pz	ankle_r_px	ankle_r_py	ankle_r_pz	toe_r_px	toe_r_py	toe_r_pz	epicondLat_l_px	epicondLat_l_py	epicondLat_l_pz	epicondMed_l_px	epicondMed_l_py	epicondMed_l_pz	thighwand_l_px	thighwand_l_py	thighwand_l_pz	upperleg1_l_px	upperleg1_l_py	upperleg1_l_pz	upperleg2_l_px	upperleg2_l_py	upperleg2_l_pz	malleolusLat_l_px	malleolusLat_l_py	malleolusLat_l_pz	malleolusMedv_l_px	malleolusMedv_l_py	malleolusMedv_l_pz	shankwand_l_px	shankwand_l_py	shankwand_l_pz	lowerleg1_l_px	lowerleg1_l_py	lowerleg1_l_pz	knee_l_px	knee_l_py	knee_l_pz	ankle_l_px	ankle_l_py	ankle_l_pz	toe_l_px	toe_l_py	toe_l_pz	subclavicle_r_px	subclavicle_r_py	subclavicle_r_pz	subclavicle_l_px	subclavicle_l_py	subclavicle_l_pz	neck_px	neck_py	neck_pz	sternalnotch_px	sternalnotch_py	sternalnotch_pz	xyphoidprocess_px	xyphoidprocess_py	xyphoidprocess_pz	midhip_tx	midhip_ty	midhip_tz	hip_r_tx	hip_r_ty	hip_r_tz	hip_l_tx	hip_l_ty	hip_l_tz	knee_r_tx	knee_r_ty	knee_r_tz	knee_l_tx	knee_l_ty	knee_l_tz	ankle_r_tx	ankle_r_ty	ankle_r_tz	ankle_l_tx	ankle_l_ty	ankle_l_tz	midasis_tx	midasis_ty	midasis_tz	asis_r_tx	asis_r_ty	asis_r_tz	asis_l_tx	asis_l_ty	asis_l_tz	psis_r_tx	psis_r_ty	psis_r_tz	psis_l_tx	psis_l_ty	psis_l_tz	epicondLat_r_tx	epicondLat_r_ty	epicondLat_r_tz	epicondLat_l_tx	epicondLat_l_ty	epicondLat_l_tz	epicondMed_r_tx	epicondMed_r_ty	epicondMed_r_tz	epicondMed_l_tx	epicondMed_l_ty	epicondMed_l_tz	malleolusLat_r_tx	malleolusLat_r_ty	malleolusLat_r_tz	malleolusLat_l_tx	malleolusLat_l_ty	malleolusLat_l_tz	malleolusMedv_r_tx	malleolusMedv_r_ty	malleolusMedv_r_tz	malleolusMedv_l_tx	malleolusMedv_l_ty	malleolusMedv_l_tz	neck_tx	neck_ty	neck_tz	subclavicle_r_tx	subclavicle_r_ty	subclavicle_r_tz	subclavicle_l_tx	subclavicle_l_ty	subclavicle_l_tz	sternalnotch_tx	sternalnotch_ty	sternalnotch_tz	xyphoidprocess_tx	xyphoidprocess_ty	xyphoidprocess_tz	thighwand_r_tx	thighwand_r_ty	thighwand_r_tz	thighwand_l_tx	thighwand_l_ty	thighwand_l_tz	upperleg1_r_tx	upperleg1_r_ty	upperleg1_r_tz	upperleg1_l_tx	upperleg1_l_ty	upperleg1_l_tz	upperleg2_r_tx	upperleg2_r_ty	upperleg2_r_tz	upperleg2_l_tx	upperleg2_l_ty	upperleg2_l_tz	shankwand_r_tx	shankwand_r_ty	shankwand_r_tz	shankwand_l_tx	shankwand_l_ty	shankwand_l_tz	lowerleg1_r_tx	lowerleg1_r_ty	lowerleg1_r_tz	lowerleg1_l_tx	lowerleg1_l_ty	lowerleg1_l_tz	toe_r_tx	toe_r_ty	toe_r_tz	toe_l_tx	toe_l_ty	toe_l_tz	ground_force_vx	ground_force_vy	ground_force_vz	ground_force_px	ground_force_py	ground_force_pz	ground_force_vx	ground_force_vy	ground_force_vz	ground_force_px	ground_force_py	ground_force_pz	ground_torque_x	ground_torque_y	ground_torque_z	ground_torque_x	ground_torque_y	ground_torque_z	ground_marker_px	ground_marker_py	ground_marker_pz	ground_marker_px	ground_marker_py	ground_marker_pz	ground_marker_px	ground_marker_py	ground_marker_pz	ground_marker_px	ground_marker_py	ground_marker_pz	ground_marker_px	ground_marker_py	ground_marker_pz	ground_marker_px	ground_marker_py	ground_marker_pz	ground_marker_px	ground_marker_py	ground_marker_pz	ground_marker_px	ground_marker_py	ground_marker_pz	ground_marker_px	ground_marker_py	ground_marker_pz	ground_marker_px	ground_marker_py	ground_marker_pz	ground_marker_px	ground_marker_py	ground_marker_pz	ground_marker_px	ground_marker_py	ground_marker_pz	ground_marker_px	ground_marker_py	ground_marker_pz	ground_marker_px	ground_marker_py	ground_marker_pz	ground_marker_px	ground_marker_py	ground_marker_pz	ground_marker_px	ground_marker_py	ground_marker_pz	ground_marker_px	ground_marker_py	ground_marker_pz	ground_marker_px	ground_marker_py	ground_marker_pz	ground_marker_px	ground_marker_py	ground_marker_pz	ground_marker_px	ground_marker_py	ground_marker_pz	ground_marker_px	ground_marker_py	ground_marker_pz	ground_marker_px	ground_marker_py	ground_marker_pz	ground_marker_px	ground_marker_py	ground_marker_pz	ground_marker_px	ground_marker_py	ground_marker_pz	ground_marker_px	ground_marker_py	ground_marker_pz	ground_marker_px	ground_marker_py	ground_marker_pz	ground_marker_px	ground_marker_py	ground_marker_pz	ground_marker_px	ground_marker_py	ground_marker_pz	ground_marker_px	ground_marker_py	ground_marker_pz	ground_marker_px	ground_marker_py	ground_marker_pz	ground_marker_px	ground_marker_py	ground_marker_pz	ground_marker_px	ground_marker_py	ground_marker_pz	ground_marker_px	ground_marker_py	ground_marker_pz	ground_marker_px	ground_marker_py	ground_marker_pz	ground_marker_px	ground_marker_py	ground_marker_pz	ground_marker_px	ground_marker_py	ground_marker_pz	ground_marker_px	ground_marker_py	ground_marker_pz
      0.41667000	      0.25404008	      0.80199192	     -0.31338587	     -2.05478169	      0.09499308	     -1.36402062	     27.15872006	      0.02657259	      0.73285810	    -31.52236039	     -2.28675513	     -4.24816808	      3.01647044	     -6.71780071	     -1.91402687	      7.23459295	     -2.52440826	     -0.29928389	     -3.84704536	      0.00000000	      0.00000000	      0.00000000	      0.00000000	      0.27118176	      0.80250207	     -0.20985888	      0.29374685	      0.79774083	     -0.41814907	      0.26548994	      0.80158067	     -0.31311306	      0.12533820	      0.84947920	     -0.29861692	      0.12742275	      0.84775435	     -0.35369698	      0.19264804	      0.74993884	     -0.24651910	      0.19590831	      0.75004860	     -0.38318745	      0.19427818	      0.74999372	     -0.31485327	      0.30735182	      0.41666068	     -0.18310506	      0.31318534	      0.42077129	     -0.29008234	      0.36346381	      0.56761419	     -0.13344014	      0.27659627	      0.59501855	     -0.16787701	      0.30450159	      0.51260341	     -0.18251946	      0.28833786	      0.08723391	     -0.19534026	      0.30240819	      0.08700520	     -0.25388616	      0.26906765	      0.20002142	     -0.12227802	      0.27748937	      0.16425302	     -0.19632956	      0.33663135	      0.44449385	     -0.24349694	      0.29752796	      0.09716762	     -0.24250893	      0.38987963	      0.03965309	     -0.20329397	      0.11978656	      0.41895766	     -0.41706979	      0.10533924	      0.37722369	     -0.28379829	      0.30698544	      0.50761183	     -0.40352681	      0.24757686	      0.58000635	     -0.42904443	      0.17756438	      0.46714175	     -0.37995226	      0.08640417	      0.06681439	     -0.39291876	      0.10729722	      0.06390927	     -0.34106903	      0.09471029	      0.18987644	     -0.47026048	      0.08939164	      0.15183287	     -0.39547919	      0.15518345	      0.41803424	     -0.36637211	      0.10490944	      0.07262998	     -0.34809683	      0.19811969	      0.03353992	     -0.40253328	      0.24166433	      1.16098098	     -0.26786394	      0.24973155	      1.17055589	     -0.34202901	      0.14110645	      1.21376736	     -0.32408210	      0.23181576	      1.16388768	     -0.30811183	      0.26661554	      1.08426267	     -0.31219178	      0.20307600	      0.74737300	     -0.31883000	      0.18710300	      0.74270300	     -0.24696200	      0.19012300	      0.74213200	     -0.37724100	      0.33484900	      0.42827900	     -0.24243500	      0.15514400	      0.42490900	     -0.35976600	      0.29766100	      0.09444900	     -0.24208700	      0.10305500	      0.06889100	     -0.34893500	      0.25901000	      0.81123000	     -0.31077100	      0.25668100	      0.81167100	     -0.21032800	      0.26133800	      0.81078900	     -0.41121400	      0.10111500	      0.85066400	     -0.28071000	      0.09827200	      0.85139100	     -0.33597700	      0.33422600	      0.42877800	     -0.18744100	      0.14975000	      0.42251900	     -0.41394500	      0.35653100	      0.42889000	     -0.28183700	      0.15178500	      0.40546700	     -0.31734000	      0.28753900	      0.09561400	     -0.20599800	      0.09594800	      0.06882600	     -0.38524600	      0.30289800	      0.09836500	     -0.26565500	      0.10295500	      0.06834000	     -0.31881700	      0.14172800	      1.22182300	     -0.32305300	      0.24342100	      1.15893700	     -0.27023700	      0.25144600	      1.16284100	     -0.34613400	      0.23292400	      1.16015800	     -0.31116200	      0.25872600	      1.07713700	     -0.31028200	      0.38323600	      0.57985600	     -0.12980900	      0.31644800	      0.53155400	     -0.38746200	      0.28986800	      0.59537400	     -0.16317300	      0.25172300	      0.59679600	     -0.41887500	      0.33137200	      0.52081000	     -0.17610000	      0.22983400	      0.51239000	     -0.41167400	      0.28099900	      0.20834000	     -0.12896500	      0.12965100	      0.18629400	     -0.46409200	      0.28636800	      0.17255400	     -0.20490000	      0.10638000	      0.15305300	     -0.39154300	      0.38360100	      0.05473700	     -0.21566700	      0.20141100	      0.03668700	     -0.36427600	      0.00000000	      0.00000000	      0.00000000	      0.59038269	      0.00000000	     -0.22940186	     20.16762375	    368.57923241	     17.12926196	      0.13887326	      0.00000000	     -0.36304260	      0.00000000	      0.00000000	      0.00000000	      0.00000000	     -0.67582251	      0.00000000	      0.20307648	      0.74737251	     -0.31883025	      0.18710263	      0.74270344	     -0.24696152	      0.19012305	      0.74213165	     -0.37724075	      0.33484885	      0.42827889	     -0.24243510	      0.15514383	      0.42490914	     -0.35976556	      0.29766059	      0.09444896	     -0.24208739	      0.10305460	      0.06889053	     -0.34893534	      0.25900978	      0.81123012	     -0.31077105	      0.25668108	      0.81167096	     -0.21032766	      0.26133847	      0.81078929	     -0.41121444	      0.10111464	      0.85066414	     -0.28071028	      0.09827174	      0.85139054	     -0.33597660	      0.33422583	      0.42877784	     -0.18744090	      0.14974983	      0.42251927	     -0.41394529	      0.35653067	      0.42888972	     -0.28183702	      0.15178539	      0.40546733	     -0.31734017	      0.28753901	      0.09561408	     -0.20599797	      0.09594797	      0.06882570	     -0.38524637	      0.30289808	      0.09836483	     -0.26565468	      0.10295466	      0.06834045	     -0.31881702	      0.14172794	      1.22182286	     -0.32305327	      0.24342118	      1.15893710	     -0.27023676	      0.25144622	      1.16284096	     -0.34613436	      0.23292388	      1.16015780	     -0.31116199	      0.25872642	      1.07713664	     -0.31028241	      0.38323647	      0.57985574	     -0.12980860	      0.31644803	      0.53155369	     -0.38746244	      0.28986809	      0.59537393	     -0.16317302	      0.25172332	      0.59679627	     -0.41887540	      0.33137235	      0.52081001	     -0.17610000	      0.22983375	      0.51239008	     -0.41167378	      0.28099865	      0.20833993	     -0.12896542	      0.12965097	      0.18629432	     -0.46409181	      0.28636846	      0.17255412	     -0.20489955	      0.10637966	      0.15305315	     -0.39154252	      0.38360065	      0.05473676	     -0.21566720	      0.20141068	      0.03668728	     -0.36427602
      0.42500000	      0.26219427	      0.80065535	     -0.31308194	     -2.07534021	     -0.04630956	     -1.13412619	     27.39247580	      0.17069466	      0.31697363	    -28.89768212	     -2.26662308	     -4.97446136	      2.89775563	     -6.98766278	     -1.71671837	      7.68552784	     -2.61619710	     -0.23136078	     -4.07479081	      0.00000000	      0.00000000	      0.00000000	      0.00000000	      0.27976035	      0.80139941	     -0.20962753	      0.30146977	      0.79614693	     -0.41799684	      0.27364500	      0.80024059	     -0.31285510	      0.13357075	      0.84822332	     -0.29789590	      0.13542890	      0.84636998	     -0.35297989	      0.20105850	      0.74877971	     -0.24584350	      0.20375857	      0.74857132	     -0.38252396	      0.20240853	      0.74867551	     -0.31418373	      0.31694972	      0.41575660	     -0.18325386	      0.32291614	      0.42020616	     -0.29021025	      0.37241403	      0.56677602	     -0.13306454	      0.28549011	      0.59394963	     -0.16754197	      0.31373122	      0.51168558	     -0.18238876	      0.31518252	      0.08473347	     -0.19627197	      0.32931783	      0.08534375	     -0.25479948	      0.29025157	      0.19625022	     -0.12297178	      0.30052731	      0.16112169	     -0.19709553	      0.34574954	      0.44406406	     -0.24352853	      0.32392561	      0.09522417	     -0.24340501	      0.41898541	      0.04230258	     -0.20419397	      0.12298054	      0.41853639	     -0.41592457	      0.10911887	      0.37691408	     -0.28255598	      0.31144366	      0.50470053	     -0.40393340	      0.25278204	      0.57788968	     -0.42890655	      0.18170447	      0.46592964	     -0.37927659	      0.08633134	      0.06662419	     -0.39178815	      0.10764258	      0.06346476	     -0.34012382	      0.09517369	      0.18967338	     -0.46909086	      0.09012948	      0.15161177	     -0.39429974	      0.15877584	      0.41712810	     -0.36552977	      0.10527967	      0.07221519	     -0.34712303	      0.19784164	      0.03306272	     -0.40261065	      0.25039359	      1.15960578	     -0.26780900	      0.25847608	      1.16905946	     -0.34198796	      0.14993490	      1.21250496	     -0.32409841	      0.24054893	      1.16247401	     -0.30806061	      0.27519560	      1.08277659	     -0.31202842	      0.21102600	      0.74639400	     -0.31865800	      0.19539800	      0.74181200	     -0.24682100	      0.19781300	      0.74116000	     -0.37711200	      0.34464300	      0.42765300	     -0.24417800	      0.15886600	      0.42446900	     -0.35978700	      0.32405100	      0.09089400	     -0.24038700	      0.10343700	      0.06881100	     -0.34896100	      0.26701800	      0.81028800	     -0.31100600	      0.26515700	      0.81079100	     -0.21055100	      0.26888000	      0.80978500	     -0.41146100	      0.10923100	      0.84975800	     -0.28030000	      0.10622900	      0.85046100	     -0.33553100	      0.34398900	      0.42780500	     -0.18918200	      0.15294800	      0.42223600	     -0.41391900	      0.36221900	      0.42835100	     -0.28487800	      0.15635500	      0.40440900	     -0.31803700	      0.31414200	      0.09190700	     -0.20423400	      0.09609700	      0.06885000	     -0.38522500	      0.32821400	      0.09471900	     -0.26409500	      0.10316400	      0.06843000	     -0.31876000	      0.14967300	      1.22089900	     -0.32314100	      0.25290800	      1.15851200	     -0.27027200	      0.26049500	      1.16209200	     -0.34613100	      0.24218200	      1.15945400	     -0.31109700	      0.26857600	      1.07662200	     -0.30994700	      0.39173400	      0.57848900	     -0.13125200	      0.32168800	      0.52954000	     -0.38887900	      0.29799700	      0.59419700	     -0.16394000	      0.25709800	      0.59535000	     -0.41946300	      0.33883300	      0.51939400	     -0.17801500	      0.23454900	      0.51114100	     -0.41249500	      0.30251200	      0.20493900	     -0.12809500	      0.13042300	      0.18620000	     -0.46407800	      0.30870100	      0.16890900	     -0.20374500	      0.10726400	      0.15302400	     -0.39131400	      0.41181500	      0.05594000	     -0.21486400	      0.20151000	      0.03653100	     -0.36453800	      0.00000000	      0.00000000	      0.00000000	      0.59236444	      0.00000000	     -0.22913281	     21.19605931	    369.94998161	     17.63646429	      0.14353354	      0.00000000	     -0.36365298	      0.00000000	      0.00000000	      0.00000000	      0.00000000	     -0.75390204	      0.00000000	      0.21102579	      0.74639356	     -0.31865752	      0.19539812	      0.74181217	     -0.24682094	      0.19781274	      0.74115974	     -0.37711242	      0.34464321	      0.42765307	     -0.24417789	      0.15886599	      0.42446932	     -0.35978702	      0.32405093	      0.09089424	     -0.24038734	      0.10343716	      0.06881051	     -0.34896061	      0.26701826	      0.81028849	     -0.31100628	      0.26515657	      0.81079149	     -0.21055114	      0.26887992	      0.80978549	     -0.41146141	      0.10923112	      0.84975803	     -0.28030017	      0.10622878	      0.85046095	     -0.33553082	      0.34398881	      0.42780486	     -0.18918200	      0.15294787	      0.42223573	     -0.41391867	      0.36221898	      0.42835143	     -0.28487810	      0.15635523	      0.40440884	     -0.31803730	      0.31414175	      0.09190711	     -0.20423442	      0.09609742	      0.06885048	     -0.38522527	      0.32821372	      0.09471854	     -0.26409498	      0.10316362	      0.06842984	     -0.31875992	      0.14967267	      1.22089863	     -0.32314119	      0.25290760	      1.15851152	     -0.27027175	      0.26049519	      1.16209209	     -0.34613109	      0.24218163	      1.15945351	     -0.31109726	      0.26857606	      1.07662165	     -0.30994722	      0.39173394	      0.57848942	     -0.13125183	      0.32168767	      0.52953994	     -0.38887897	      0.29799694	      0.59419674	     -0.16394018	      0.25709802	      0.59534979	     -0.41946277	      0.33883339	      0.51939410	     -0.17801517	      0.23454890	      0.51114094	     -0.41249517	      0.30251151	      0.20493950	     -0.12809522	      0.13042311	      0.18620045	     -0.46407786	      0.30870071	      0.16890928	     -0.20374525	      0.10726440	      0.15302412	     -0.39131421	      0.41181472	      0.05594013	     -0.21486354	      0.20151000	      0.03653053	     -0.36453795
      0.43333000	      0.27043822	      0.79923962	     -0.31285026	     -2.10770181	     -0.17565181	     -0.86338217	     27.54915309	      0.26666950	     -0.11852438	    -26.13464631	     -2.30345124	     -5.65513426	      2.77987502	     -7.24720399	     -1.59303358	      8.16745397	     -2.43342920	     -0.20422202	     -4.28143277	      0.00000000	      0.00000000	      0.00000000	      0.00000000	      0.28850164	      0.80018890	     -0.20948321	      0.30920656	      0.79449002	     -0.41794300	      0.28188968	      0.79881870	     -0.31267757	      0.14191624	      0.84691357	     -0.29714570	      0.14350863	      0.84494447	     -0.35223399	      0.20959675	      0.74753949	     -0.24521090	      0.21163989	      0.74704496	     -0.38190201	      0.21061832	      0.74729222	     -0.31355646	      0.32614718	      0.41461124	     -0.18334486	      0.33224639	      0.41935659	     -0.29028105	      0.38120732	      0.56562075	     -0.13268294	      0.29426907	      0.59269161	     -0.16720504	      0.32271347	      0.51053019	     -0.18223097	      0.34200173	      0.08278985	     -0.19699004	      0.35616400	      0.08422863	     -0.25549652	      0.31138401	      0.19276144	     -0.12351038	      0.32351408	      0.15834337	     -0.19768714	      0.35447036	      0.44329801	     -0.24351306	      0.35026565	      0.09380187	     -0.24409060	      0.44779658	      0.04559884	     -0.20486371	      0.12639815	      0.41808429	     -0.41480296	      0.11321080	      0.37653295	     -0.28134389	      0.31603589	      0.50185007	     -0.40444861	      0.25808229	      0.57579486	     -0.42884213	      0.18604374	      0.46470204	     -0.37865210	      0.08625735	      0.06649522	     -0.39066296	      0.10800172	      0.06305866	     -0.33919719	      0.09569033	      0.18952510	     -0.46792659	      0.09092491	      0.15144083	     -0.39312872	      0.16261397	      0.41619218	     -0.36473241	      0.10566749	      0.07184067	     -0.34616640	      0.19753447	      0.03262740	     -0.40275517	      0.25796046	      1.15850302	     -0.26798493	      0.26593061	      1.16783269	     -0.34219174	      0.15729612	      1.21102639	     -0.32425886	      0.24806088	      1.16126639	     -0.30823040	      0.28291335	      1.08165312	     -0.31208331	      0.21924600	      0.74552500	     -0.31838300	      0.20383700	      0.74084500	     -0.24666200	      0.20554900	      0.74014700	     -0.37696500	      0.35402100	      0.42677900	     -0.24578600	      0.16282100	      0.42397100	     -0.35980700	      0.35048300	      0.08802400	     -0.23874200	      0.10381100	      0.06878500	     -0.34896600	      0.27513900	      0.80926900	     -0.31125600	      0.27381800	      0.80980700	     -0.21075700	      0.27645900	      0.80873100	     -0.41175600	      0.11744400	      0.84881900	     -0.27986100	      0.11432600	      0.84949600	     -0.33507300	      0.35334400	      0.42660900	     -0.19079000	      0.15635400	      0.42191100	     -0.41388200	      0.36875500	      0.42745400	     -0.28735300	      0.16386400	      0.40240900	     -0.31849700	      0.34073400	      0.08887900	     -0.20254200	      0.09624700	      0.06893600	     -0.38518400	      0.35369000	      0.09162900	     -0.26259800	      0.10348600	      0.06846000	     -0.31870900	      0.15768700	      1.21981400	     -0.32321400	      0.25894000	      1.15702000	     -0.27013000	      0.26881500	      1.16100500	     -0.34605400	      0.24944500	      1.15824800	     -0.31141800	      0.27542600	      1.07529000	     -0.30996400	      0.40002700	      0.57680900	     -0.13271500	      0.32709200	      0.52754900	     -0.39037900	      0.30624200	      0.59282400	     -0.16485700	      0.26261700	      0.59407900	     -0.41989600	      0.34657300	      0.51786900	     -0.17971600	      0.24067900	      0.51027600	     -0.41319000	      0.32380000	      0.20191800	     -0.12728700	      0.13129200	      0.18611400	     -0.46405400	      0.33076200	      0.16578700	     -0.20238400	      0.10825500	      0.15304700	     -0.39115200	      0.43975700	      0.05784800	     -0.21401100	      0.20161500	      0.03640900	     -0.36473200	      0.00000000	      0.00000000	      0.00000000	      0.59424341	      0.00000000	     -0.22891052	     22.02991314	    371.28909845	     18.29986619	      0.14840439	      0.00000000	     -0.36429593	      0.00000000	      0.00000000	      0.00000000	      0.00000000	     -0.82596387	      0.00000000	      0.21924633	      0.74552518	     -0.31838262	      0.20383684	      0.74084461	     -0.24666236	      0.20554911	      0.74014682	     -0.37696475	      0.35402131	      0.42677909	     -0.24578601	      0.16282117	      0.42397133	     -0.35980651	      0.35048285	      0.08802428	     -0.23874208	      0.10381055	      0.06878474	     -0.34896582	      0.27513865	      0.80926901	     -0.31125617	      0.27381802	      0.80980724	     -0.21075659	      0.27645928	      0.80873078	     -0.41175577	      0.11744420	      0.84881908	     -0.27986053	      0.11432610	      0.84949648	     -0.33507255	      0.35334447	      0.42660889	     -0.19079043	      0.15635404	      0.42191070	     -0.41388220	      0.36875457	      0.42745396	     -0.28735319	      0.16386408	      0.40240943	     -0.31849709	      0.34073356	      0.08887886	     -0.20254165	      0.09624676	      0.06893596	     -0.38518414	      0.35368982	      0.09162886	     -0.26259848	      0.10348629	      0.06846005	     -0.31870863	      0.15768725	      1.21981394	     -0.32321402	      0.25893986	      1.15702045	     -0.27012995	      0.26881468	      1.16100502	     -0.34605390	      0.24944530	      1.15824759	     -0.31141779	      0.27542555	      1.07528985	     -0.30996382	      0.40002683	      0.57680899	     -0.13271497	      0.32709190	      0.52754915	     -0.39037919	      0.30624250	      0.59282362	     -0.16485737	      0.26261696	      0.59407890	     -0.41989642	      0.34657311	      0.51786852	     -0.17971596	      0.24067917	      0.51027560	     -0.41318977	      0.32380036	      0.20191836	     -0.12728705	      0.13129173	      0.18611357	     -0.46405375	      0.33076164	      0.16578712	     -0.20238441	      0.10825527	      0.15304743	     -0.39115188	      0.43975717	      0.05784849	     -0.21401127	      0.20161472	      0.03640900	     -0.36473170
